<svg width="48" height="32" viewBox="0 0 48 32" fill="none" xmlns="http://www.w3.org/2000/svg">
<g id="Great Britain &#240;&#159;&#135;&#172;&#240;&#159;&#135;&#167;">
<path id="Layout" d="M37.327 18.1447L27.6404 9.23344C27.6074 9.20307 27.5792 9.16929 27.5554 9.13125C26.8904 8.06714 25.4768 5.82036 24.8647 4.90225C24.0858 3.73389 22.7877 3.86371 22.0088 4.12335C21.2299 4.38298 19.8019 4.25316 18.7634 3.60408L18.7147 3.57365C17.7124 2.947 17.3231 2.70355 16.5565 3.21463C15.9334 3.63004 13.614 3.04063 12.5322 2.69399C10.8013 2.39129 6.87214 1.8378 5.00278 2.04551C2.66608 2.30514 2.14665 4.77346 1.7572 6.33126C1.36775 7.88906 0.19943 14.1203 1.88705 17.2359C3.57467 20.3515 5.3921 20.3515 6.82009 19.3129C7.78609 18.6104 6.2829 17.4871 5.01072 16.7906C4.70071 16.6209 4.63298 16.1938 4.89034 15.9516L6.56024 14.3799C8.50748 12.5622 13.1549 8.5373 16.1667 6.9795C18.8036 5.61556 20.4387 7.33663 21.1244 8.74457C21.2637 9.03076 21.061 9.34935 20.7446 9.3845L18.6711 9.61492C18.2987 9.6563 18.1011 10.0778 18.3041 10.3927C18.8005 11.1629 19.4736 12.2411 19.9317 13.0809C20.7106 14.5089 20.8405 16.0667 19.4125 18.1437C18.2701 19.8054 19.196 21.4324 19.8018 22.0382C20.7105 22.947 22.7875 25.1019 23.8261 26.452C25.1242 28.1396 27.4609 30.0869 28.2398 30.3465C29.0187 30.6062 30.3169 29.1782 30.5766 28.3993C30.7155 27.9825 30.5911 27.465 30.4288 27.0644C30.3193 26.7943 30.4079 26.4667 30.6663 26.3318L33.1729 25.024C33.7354 24.6779 35.2759 23.9595 36.9376 23.8557C39.0146 23.7259 39.5339 22.1681 39.7935 21.519C40.0012 20.9997 38.2357 19.0531 37.327 18.1447Z" stroke="black"/>
</g>
</svg>
